# Blender v2.74 (sub 0) OBJ File: 'LuxTransformer.blend'
# www.blender.org
mtllib LuxTransformer.mtl
o Icosphere
v 0.595287 0.368848 0.632831
v 0.576229 0.395078 0.632831
v 0.623343 0.540076 0.632831
v 0.500000 0.629692 0.632831
v 0.376657 0.540076 0.632831
v 0.423771 0.395078 0.632831
v 0.623343 0.459924 0.368974
v 0.576229 0.604922 0.368974
v 0.423771 0.604922 0.368974
v 0.376657 0.459924 0.368974
v 0.500000 0.370308 0.368974
v 0.500000 0.500000 0.205903
v 0.654179 0.550095 0.632831
v 0.500000 0.662115 0.632831
v 0.345821 0.550095 0.632831
v 0.404713 0.368848 0.632831
v 0.595287 0.368848 1.000000
v 0.654179 0.550095 1.000003
v 0.500000 0.662115 1.000003
v 0.345821 0.550095 1.000003
v 0.404713 0.368848 1.000000
vn 0.000000 0.000000 -1.000000
vn 0.000000 -0.995600 0.093500
vn 0.946900 -0.307700 0.093500
vn 0.585200 0.805500 0.093500
vn -0.585200 0.805500 0.093500
vn -0.946900 -0.307700 0.093500
vn 0.585200 -0.805500 -0.093500
vn 0.946900 0.307700 -0.093500
vn 0.000000 0.995600 -0.093500
vn -0.946900 0.307700 -0.093500
vn -0.585200 -0.805500 -0.093500
vn 0.494300 -0.680400 -0.541100
vn 0.799800 0.259900 -0.541100
vn 0.000000 0.841000 -0.541100
vn -0.799800 0.259900 -0.541100
vn -0.494300 -0.680400 -0.541100
vn 0.951100 -0.309000 0.000000
vn 0.000000 -1.000000 0.000000
vn 0.587800 0.809000 0.000000
vn -0.587800 0.809000 0.000000
vn -0.951100 -0.309000 -0.000000
vn 0.000000 -0.000000 1.000000
usemtl None
s off
f 2//1 1//1 16//1
f 3//1 4//1 14//1
f 3//1 13//1 1//1
f 5//1 6//1 16//1
f 5//1 15//1 14//1
f 2//2 6//2 11//2
f 3//3 2//3 7//3
f 4//4 3//4 8//4
f 5//5 4//5 9//5
f 6//6 5//6 10//6
f 2//7 11//7 7//7
f 3//8 7//8 8//8
f 4//9 8//9 9//9
f 5//10 9//10 10//10
f 6//11 10//11 11//11
f 7//12 11//12 12//12
f 8//13 7//13 12//13
f 9//14 8//14 12//14
f 10//15 9//15 12//15
f 11//16 10//16 12//16
f 13//17 18//17 17//17
f 1//18 17//18 21//18
f 14//19 19//19 18//19
f 14//20 15//20 20//20
f 16//21 21//21 20//21
f 19//22 21//22 17//22
f 6//1 2//1 16//1
f 13//1 3//1 14//1
f 2//1 3//1 1//1
f 15//1 5//1 16//1
f 4//1 5//1 14//1
f 1//17 13//17 17//17
f 16//18 1//18 21//18
f 13//19 14//19 18//19
f 19//20 14//20 20//20
f 15//21 16//21 20//21
f 21//22 19//22 20//22
f 19//22 17//22 18//22
