# Blender v2.74 (sub 0) OBJ File: 'LuxRouter.blend'
# www.blender.org
mtllib LuxRouter.mtl
o Plane
v -0.000000 0.001151 -0.375000
v -0.073159 0.001151 -0.367795
v -0.143506 0.001151 -0.346455
v -0.208339 0.001151 -0.311801
v -0.265165 0.001151 -0.265165
v -0.311801 0.001151 -0.208339
v -0.346455 0.001151 -0.143506
v -0.367795 0.001151 -0.073159
v -0.375000 0.001151 -0.000000
v -0.367795 0.001151 0.073159
v -0.346455 0.001151 0.143506
v -0.311801 0.001151 0.208339
v -0.265165 0.001151 0.265165
v -0.208339 0.001151 0.311801
v -0.143506 0.001151 0.346455
v -0.073159 0.001151 0.367794
v 0.000000 0.001151 0.375000
v 0.073159 0.001151 0.367794
v 0.143506 0.001151 0.346455
v 0.208339 0.001151 0.311801
v 0.265165 0.001151 0.265165
v 0.311801 0.001151 0.208338
v 0.346455 0.001151 0.143506
v 0.367794 0.001151 0.073158
v 0.375000 0.001151 -0.000000
v 0.367794 0.001151 -0.073159
v 0.346455 0.001151 -0.143507
v 0.311801 0.001151 -0.208339
v 0.265165 0.001151 -0.265165
v 0.208338 0.001151 -0.311801
v 0.143506 0.001151 -0.346455
v 0.073158 0.001151 -0.367795
v -0.000000 0.001151 -0.311796
v -0.060828 0.001151 -0.305805
v -0.119319 0.001151 -0.288062
v -0.173225 0.001151 -0.259249
v -0.220473 0.001151 -0.220473
v -0.259249 0.001151 -0.173225
v -0.288062 0.001151 -0.119319
v -0.305805 0.001151 -0.060829
v -0.311796 0.001151 -0.000000
v -0.305805 0.001151 0.060828
v -0.288062 0.001151 0.119319
v -0.259249 0.001151 0.173224
v -0.220473 0.001151 0.220473
v -0.173225 0.001151 0.259249
v -0.119319 0.001151 0.288062
v -0.060828 0.001151 0.305805
v 0.000000 0.001151 0.311796
v 0.060828 0.001151 0.305805
v 0.119319 0.001151 0.288062
v 0.173225 0.001151 0.259249
v 0.220473 0.001151 0.220473
v 0.259249 0.001151 0.173224
v 0.288062 0.001151 0.119319
v 0.305805 0.001151 0.060828
v 0.311796 0.001151 -0.000000
v 0.305805 0.001151 -0.060829
v 0.288062 0.001151 -0.119320
v 0.259249 0.001151 -0.173225
v 0.220473 0.001151 -0.220473
v 0.173224 0.001151 -0.259249
v 0.119319 0.001151 -0.288062
v 0.060828 0.001151 -0.305805
v -0.073159 0.054518 -0.367795
v -0.000000 0.054518 -0.375000
v -0.143506 0.054518 -0.346455
v -0.208339 0.054518 -0.311801
v -0.265165 0.054518 -0.265165
v -0.311801 0.054518 -0.208339
v -0.346455 0.054518 -0.143506
v -0.367795 0.054518 -0.073159
v -0.375000 0.054518 -0.000000
v -0.367795 0.054518 0.073159
v -0.346455 0.054518 0.143506
v -0.311801 0.054518 0.208339
v -0.265165 0.054518 0.265165
v -0.208339 0.054518 0.311801
v -0.143506 0.054518 0.346455
v -0.073159 0.054518 0.367794
v 0.000000 0.054518 0.375000
v 0.073159 0.054518 0.367794
v 0.143506 0.054518 0.346455
v 0.208339 0.054518 0.311801
v 0.265165 0.054518 0.265165
v 0.311801 0.054518 0.208338
v 0.346455 0.054518 0.143506
v 0.367794 0.054518 0.073158
v 0.375000 0.054518 -0.000000
v 0.367794 0.054518 -0.073159
v 0.346455 0.054518 -0.143507
v 0.311801 0.054518 -0.208339
v 0.265165 0.054518 -0.265165
v 0.208338 0.054518 -0.311801
v 0.143506 0.054518 -0.346455
v 0.073158 0.054518 -0.367795
v -0.048355 0.211226 -0.243096
v -0.000000 0.211226 -0.247858
v -0.094851 0.211226 -0.228991
v -0.137703 0.211226 -0.206087
v -0.175262 0.211226 -0.175262
v -0.206087 0.211226 -0.137703
v -0.228991 0.211226 -0.094851
v -0.243096 0.211226 -0.048355
v -0.247858 0.211226 -0.000000
v -0.243096 0.211226 0.048355
v -0.228991 0.211226 0.094851
v -0.206087 0.211226 0.137702
v -0.175262 0.211226 0.175262
v -0.137703 0.211226 0.206086
v -0.094851 0.211226 0.228991
v -0.048355 0.211226 0.243095
v 0.000000 0.211226 0.247858
v 0.048355 0.211226 0.243095
v 0.094851 0.211226 0.228991
v 0.137703 0.211226 0.206086
v 0.175262 0.211226 0.175262
v 0.206087 0.211226 0.137702
v 0.228991 0.211226 0.094851
v 0.243096 0.211226 0.048354
v 0.247858 0.211226 -0.000000
v 0.243095 0.211226 -0.048355
v 0.228991 0.211226 -0.094852
v 0.206086 0.211226 -0.137703
v 0.175262 0.211226 -0.175262
v 0.137702 0.211226 -0.206087
v 0.094851 0.211226 -0.228991
v 0.048354 0.211226 -0.243096
vn 0.000000 -1.000000 0.000000
vn 0.686200 0.628200 -0.366800
vn -0.601400 0.628200 -0.493600
vn -0.076300 0.628200 0.774300
vn 0.774300 0.628200 -0.076300
vn -0.366800 0.628200 -0.686200
vn -0.366800 0.628200 0.686200
vn 0.744500 0.628200 0.225900
vn -0.076300 0.628200 -0.774300
vn -0.601400 0.628200 0.493600
vn 0.076300 0.628200 -0.774300
vn 0.601400 0.628200 0.493600
vn -0.744500 0.628200 0.225900
vn 0.366800 0.628200 -0.686200
vn 0.366800 0.628200 0.686200
vn -0.774300 0.628200 -0.076300
vn 0.601400 0.628200 -0.493600
vn 0.076300 0.628200 0.774300
vn -0.686200 0.628200 -0.366800
vn 0.744500 0.628200 -0.225900
vn -0.493600 0.628200 -0.601400
vn -0.225900 0.628200 0.744500
vn 0.774300 0.628200 0.076300
vn -0.225900 0.628200 -0.744500
vn -0.493600 0.628200 0.601400
vn 0.686200 0.628200 0.366800
vn -0.686200 0.628200 0.366800
vn 0.225900 0.628200 -0.744500
vn 0.493600 0.628200 0.601400
vn -0.774300 0.628200 0.076300
vn 0.493600 0.628200 -0.601400
vn 0.225900 0.628200 0.744500
vn -0.744500 0.628200 -0.225900
vn -0.995200 0.000000 -0.098000
vn 0.607200 -0.289900 -0.739800
vn -0.739800 -0.289900 0.607200
vn 0.956900 0.000000 0.290300
vn -0.098000 0.000000 -0.995200
vn 0.844100 -0.289900 0.451200
vn -0.739800 -0.289900 -0.607200
vn -0.098000 0.000000 0.995200
vn 0.290300 0.000000 -0.956900
vn -0.995200 0.000000 0.098000
vn 0.451200 -0.289900 -0.844100
vn -0.607200 -0.289900 0.739800
vn 0.995200 0.000000 0.098000
vn -0.290300 0.000000 -0.956900
vn 0.915900 -0.289900 0.277800
vn -0.844100 -0.289900 -0.451200
vn 0.098000 0.000000 0.995200
vn 0.098000 0.000000 -0.995200
vn -0.956900 0.000000 0.290300
vn 0.277800 -0.289900 -0.915900
vn -0.451200 -0.289900 0.844100
vn 0.995200 0.000000 -0.098000
vn -0.471400 0.000000 -0.881900
vn 0.952500 -0.289900 0.093800
vn -0.915900 -0.289900 -0.277800
vn 0.290300 0.000000 0.956900
vn 0.093800 -0.289900 0.952500
vn -0.881900 0.000000 0.471400
vn 0.093800 -0.289900 -0.952500
vn -0.277800 -0.289900 0.915900
vn 0.956900 0.000000 -0.290300
vn -0.634400 0.000000 -0.773000
vn 0.952500 -0.289900 -0.093800
vn -0.952500 -0.289900 -0.093800
vn 0.471400 0.000000 0.881900
vn 0.277800 -0.289900 0.915900
vn -0.773000 0.000000 0.634400
vn -0.093800 -0.289900 -0.952500
vn -0.093800 -0.289900 0.952500
vn 0.881900 0.000000 -0.471400
vn 0.915900 -0.289900 -0.277800
vn -0.773000 0.000000 -0.634400
vn -0.952500 -0.289900 0.093800
vn 0.634400 0.000000 0.773000
vn 0.451200 -0.289900 0.844100
vn -0.634400 0.000000 0.773000
vn -0.277800 -0.289900 -0.915900
vn 0.773000 0.000000 -0.634400
vn -0.881900 0.000000 -0.471400
vn 0.844100 -0.289900 -0.451200
vn -0.915900 -0.289900 0.277800
vn 0.773000 0.000000 0.634400
vn 0.607200 -0.289900 0.739800
vn -0.471400 0.000000 0.881900
vn -0.451200 -0.289900 -0.844100
vn 0.634400 0.000000 -0.773000
vn -0.956900 0.000000 -0.290300
vn 0.739800 -0.289900 -0.607200
vn -0.844100 -0.289900 0.451200
vn 0.881900 0.000000 0.471400
vn 0.739800 -0.289900 0.607200
vn -0.607200 -0.289900 -0.739800
vn -0.290300 0.000000 0.956900
vn 0.471400 0.000000 -0.881900
usemtl None
s off
f 60//1 27//1 59//1
f 38//1 5//1 37//1
f 17//1 48//1 49//1
f 26//1 57//1 58//1
f 36//1 3//1 35//1
f 47//1 14//1 46//1
f 24//1 55//1 56//1
f 2//1 33//1 34//1
f 45//1 12//1 44//1
f 1//1 64//1 33//1
f 22//1 53//1 54//1
f 43//1 10//1 42//1
f 31//1 62//1 63//1
f 52//1 19//1 51//1
f 41//1 8//1 40//1
f 29//1 60//1 61//1
f 50//1 17//1 49//1
f 7//1 38//1 39//1
f 27//1 58//1 59//1
f 37//1 4//1 36//1
f 16//1 47//1 48//1
f 57//1 24//1 56//1
f 35//1 2//1 34//1
f 46//1 13//1 45//1
f 23//1 54//1 55//1
f 44//1 11//1 43//1
f 32//1 63//1 64//1
f 21//1 52//1 53//1
f 42//1 9//1 41//1
f 62//1 29//1 61//1
f 19//1 50//1 51//1
f 40//1 7//1 39//1
f 91//2 124//2 123//2
f 69//3 102//3 101//3
f 80//4 113//4 112//4
f 90//5 121//5 89//5
f 67//6 100//6 99//6
f 78//7 111//7 110//7
f 88//8 119//8 87//8
f 65//9 98//9 66//9
f 76//10 109//10 108//10
f 66//11 128//11 96//11
f 86//12 117//12 85//12
f 74//13 107//13 106//13
f 95//14 126//14 94//14
f 83//15 116//15 115//15
f 72//16 105//16 104//16
f 93//17 124//17 92//17
f 81//18 114//18 113//18
f 71//19 102//19 70//19
f 91//20 122//20 90//20
f 68//21 101//21 100//21
f 80//22 111//22 79//22
f 88//23 121//23 120//23
f 65//24 99//24 97//24
f 77//25 110//25 109//25
f 87//26 118//26 86//26
f 75//27 108//27 107//27
f 96//28 127//28 95//28
f 85//29 116//29 84//29
f 73//30 106//30 105//30
f 93//31 126//31 125//31
f 82//32 115//32 114//32
f 71//33 104//33 103//33
f 8//34 73//34 72//34
f 46//35 109//35 110//35
f 61//36 124//36 125//36
f 23//37 88//37 87//37
f 1//38 65//38 66//38
f 39//39 102//39 103//39
f 54//40 117//40 118//40
f 16//41 81//41 80//41
f 31//42 96//42 95//42
f 9//43 74//43 73//43
f 47//44 110//44 111//44
f 62//45 125//45 126//45
f 24//46 89//46 88//46
f 2//47 67//47 65//47
f 40//48 103//48 104//48
f 55//49 118//49 119//49
f 17//50 82//50 81//50
f 32//51 66//51 96//51
f 10//52 75//52 74//52
f 48//53 111//53 112//53
f 63//54 126//54 127//54
f 25//55 90//55 89//55
f 3//56 68//56 67//56
f 41//57 104//57 105//57
f 56//58 119//58 120//58
f 18//59 83//59 82//59
f 34//60 98//60 97//60
f 11//61 76//61 75//61
f 49//62 112//62 113//62
f 64//63 127//63 128//63
f 26//64 91//64 90//64
f 4//65 69//65 68//65
f 42//66 105//66 106//66
f 57//67 120//67 121//67
f 19//68 84//68 83//68
f 35//69 97//69 99//69
f 12//70 77//70 76//70
f 50//71 113//71 114//71
f 33//72 128//72 98//72
f 27//73 92//73 91//73
f 43//74 106//74 107//74
f 5//75 70//75 69//75
f 58//76 121//76 122//76
f 20//77 85//77 84//77
f 36//78 99//78 100//78
f 13//79 78//79 77//79
f 51//80 114//80 115//80
f 28//81 93//81 92//81
f 6//82 71//82 70//82
f 44//83 107//83 108//83
f 59//84 122//84 123//84
f 21//85 86//85 85//85
f 37//86 100//86 101//86
f 14//87 79//87 78//87
f 52//88 115//88 116//88
f 29//89 94//89 93//89
f 7//90 72//90 71//90
f 45//91 108//91 109//91
f 60//92 123//92 124//92
f 22//93 87//93 86//93
f 38//94 101//94 102//94
f 53//95 116//95 117//95
f 15//96 80//96 79//96
f 30//97 95//97 94//97
f 28//1 27//1 60//1
f 6//1 5//1 38//1
f 16//1 48//1 17//1
f 25//1 57//1 26//1
f 4//1 3//1 36//1
f 15//1 14//1 47//1
f 23//1 55//1 24//1
f 1//1 33//1 2//1
f 13//1 12//1 45//1
f 32//1 64//1 1//1
f 21//1 53//1 22//1
f 11//1 10//1 43//1
f 30//1 62//1 31//1
f 20//1 19//1 52//1
f 9//1 8//1 41//1
f 28//1 60//1 29//1
f 18//1 17//1 50//1
f 6//1 38//1 7//1
f 26//1 58//1 27//1
f 5//1 4//1 37//1
f 15//1 47//1 16//1
f 25//1 24//1 57//1
f 3//1 2//1 35//1
f 14//1 13//1 46//1
f 22//1 54//1 23//1
f 12//1 11//1 44//1
f 31//1 63//1 32//1
f 20//1 52//1 21//1
f 10//1 9//1 42//1
f 30//1 29//1 62//1
f 18//1 50//1 19//1
f 8//1 7//1 40//1
f 92//2 124//2 91//2
f 70//3 102//3 69//3
f 81//4 113//4 80//4
f 122//5 121//5 90//5
f 68//6 100//6 67//6
f 79//7 111//7 78//7
f 120//8 119//8 88//8
f 97//9 98//9 65//9
f 77//10 109//10 76//10
f 98//11 128//11 66//11
f 118//12 117//12 86//12
f 75//13 107//13 74//13
f 127//14 126//14 95//14
f 84//15 116//15 83//15
f 73//16 105//16 72//16
f 125//17 124//17 93//17
f 82//18 114//18 81//18
f 103//19 102//19 71//19
f 123//20 122//20 91//20
f 69//21 101//21 68//21
f 112//22 111//22 80//22
f 89//23 121//23 88//23
f 67//24 99//24 65//24
f 78//25 110//25 77//25
f 119//26 118//26 87//26
f 76//27 108//27 75//27
f 128//28 127//28 96//28
f 117//29 116//29 85//29
f 74//30 106//30 73//30
f 94//31 126//31 93//31
f 83//32 115//32 82//32
f 72//33 104//33 71//33
f 9//34 73//34 8//34
f 45//35 109//35 46//35
f 60//36 124//36 61//36
f 24//37 88//37 23//37
f 2//38 65//38 1//38
f 38//39 102//39 39//39
f 53//40 117//40 54//40
f 17//41 81//41 16//41
f 32//42 96//42 31//42
f 10//43 74//43 9//43
f 46//44 110//44 47//44
f 61//45 125//45 62//45
f 25//46 89//46 24//46
f 3//47 67//47 2//47
f 39//48 103//48 40//48
f 54//49 118//49 55//49
f 18//50 82//50 17//50
f 1//51 66//51 32//51
f 11//52 75//52 10//52
f 47//53 111//53 48//53
f 62//54 126//54 63//54
f 26//55 90//55 25//55
f 4//56 68//56 3//56
f 40//57 104//57 41//57
f 55//58 119//58 56//58
f 19//59 83//59 18//59
f 33//60 98//60 34//60
f 12//61 76//61 11//61
f 48//62 112//62 49//62
f 63//63 127//63 64//63
f 27//64 91//64 26//64
f 5//65 69//65 4//65
f 41//66 105//66 42//66
f 56//67 120//67 57//67
f 20//68 84//68 19//68
f 34//69 97//69 35//69
f 13//70 77//70 12//70
f 49//71 113//71 50//71
f 64//72 128//72 33//72
f 28//73 92//73 27//73
f 42//74 106//74 43//74
f 6//75 70//75 5//75
f 57//76 121//76 58//76
f 21//77 85//77 20//77
f 35//78 99//78 36//78
f 14//79 78//79 13//79
f 50//80 114//80 51//80
f 29//81 93//81 28//81
f 7//82 71//82 6//82
f 43//83 107//83 44//83
f 58//84 122//84 59//84
f 22//85 86//85 21//85
f 36//86 100//86 37//86
f 15//87 79//87 14//87
f 51//88 115//88 52//88
f 30//89 94//89 29//89
f 8//90 72//90 7//90
f 44//91 108//91 45//91
f 59//92 123//92 60//92
f 23//93 87//93 22//93
f 37//94 101//94 38//94
f 52//95 116//95 53//95
f 16//96 80//96 15//96
f 31//97 95//97 30//97
o Icosphere
v 0.000000 0.205000 0.000000
v 0.104922 0.368072 0.076229
v -0.040076 0.368072 0.123343
v -0.129692 0.368072 0.000000
v -0.040076 0.368072 -0.123343
v 0.104922 0.368072 -0.076229
v 0.040076 0.631928 0.123343
v -0.104922 0.631928 0.076229
v -0.104922 0.631928 -0.076229
v 0.040076 0.631928 -0.123343
v 0.129692 0.631928 0.000000
v 0.000000 0.795000 0.000000
vn 0.259900 -0.541100 0.799800
vn 0.841000 -0.541100 0.000000
vn -0.680400 -0.541100 0.494300
vn -0.680400 -0.541100 -0.494300
vn 0.259900 -0.541100 -0.799800
vn 0.995600 -0.093500 0.000000
vn 0.307700 -0.093500 0.946900
vn -0.805500 -0.093500 0.585200
vn -0.805500 -0.093500 -0.585200
vn 0.307700 -0.093500 -0.946900
vn 0.805500 0.093500 0.585200
vn -0.307700 0.093500 0.946900
vn -0.995600 0.093500 0.000000
vn -0.307700 0.093500 -0.946900
vn 0.805500 0.093500 -0.585200
vn 0.680400 0.541100 0.494300
vn -0.259900 0.541100 0.799800
vn -0.841000 0.541100 0.000000
vn -0.259900 0.541100 -0.799800
vn 0.680400 0.541100 -0.494300
usemtl None
s off
f 129//98 130//98 131//98
f 130//99 129//99 134//99
f 129//100 131//100 132//100
f 129//101 132//101 133//101
f 129//102 133//102 134//102
f 130//103 134//103 139//103
f 131//104 130//104 135//104
f 132//105 131//105 136//105
f 133//106 132//106 137//106
f 134//107 133//107 138//107
f 130//108 139//108 135//108
f 131//109 135//109 136//109
f 132//110 136//110 137//110
f 133//111 137//111 138//111
f 134//112 138//112 139//112
f 135//113 139//113 140//113
f 136//114 135//114 140//114
f 137//115 136//115 140//115
f 138//116 137//116 140//116
f 139//117 138//117 140//117
